<?xml version="1.0" encoding="UTF-8"?>
<svg version="1.1" xmlns="http://www.w3.org/2000/svg" width="200" height="200">
<path d="M0 0 C0.81170654 -0.0049649 1.62341309 -0.00992981 2.4597168 -0.01504517 C5.14649298 -0.02965703 7.83321013 -0.03646692 10.52001953 -0.04199219 C12.38705446 -0.04774414 14.25408937 -0.05350186 16.12112427 -0.05926514 C20.036807 -0.06977213 23.95246922 -0.07561687 27.86816406 -0.07910156 C32.88419204 -0.08458778 37.89994877 -0.1086198 42.91589165 -0.13707352 C46.77292675 -0.15570146 50.62989652 -0.16090556 54.48697281 -0.16243744 C56.33613697 -0.16546379 58.18529999 -0.17349173 60.03442001 -0.18662262 C62.62211479 -0.20368755 65.2091467 -0.20180196 67.796875 -0.1953125 C68.55964752 -0.20452728 69.32242004 -0.21374207 70.10830688 -0.22323608 C75.76232642 -0.17884456 78.88114054 1.19011867 82.98486328 4.95800781 C83.90332031 5.92480469 83.90332031 5.92480469 84.84033203 6.91113281 C87.39934556 9.54162717 89.97943985 12.03744464 92.77783203 14.41113281 C96.95504422 17.99395908 100.79959827 21.8741841 104.64013672 25.81054688 C107.0838707 28.29683751 109.53787629 30.60950557 112.27001953 32.77832031 C115.23647595 35.34140589 116.79205862 37.1757084 117.25881863 41.1062479 C117.24568426 42.13013064 117.24568426 42.13013064 117.23228455 43.17469788 C117.22755127 43.96364441 117.22281799 44.75259094 117.21794128 45.56544495 C117.19525932 46.85043129 117.19525932 46.85043129 117.17211914 48.16137695 C117.15631867 50.04639174 117.1405262 51.9314066 117.1247406 53.81642151 C117.11270536 54.81468019 117.10067013 55.81293888 117.08827019 56.84144783 C117.03176604 62.1425368 117.03233816 67.44377409 117.02197266 72.74511719 C117.00446562 79.48486265 116.9706605 86.22344365 116.88061523 92.96264648 C116.80925796 98.41431182 116.79202588 103.86387297 116.8098774 109.31594658 C116.80676777 111.38634052 116.78403688 113.45680714 116.74073601 115.52675056 C116.12143172 128.43622261 116.12143172 128.43622261 121.95082188 139.36935329 C123.39593818 140.69205764 124.93132988 141.91412229 126.46925354 143.12767029 C129.90095986 145.85506216 130.84398483 147.75163762 131.40283203 152.03613281 C130.92644701 156.00600795 129.49742777 158.05649817 127.02783203 161.16113281 C123.48765958 163.52124778 121.3144735 163.506323 117.18408203 163.71972656 C114.56293563 164.25630182 113.80680259 165.22897312 112.02783203 167.16113281 C109.13087386 168.12678554 107.27881481 168.29319469 104.26567078 168.30830383 C102.79580719 168.31903679 102.79580719 168.31903679 101.29624939 168.32998657 C99.68551292 168.33401993 99.68551292 168.33401993 98.04223633 168.33813477 C96.91026825 168.34470596 95.77830017 168.35127716 94.61203003 168.35804749 C90.85870297 168.37779023 87.10541592 168.3894445 83.35205078 168.39941406 C82.07148111 168.40348959 80.79091145 168.40756512 79.47153664 168.41176414 C73.39427618 168.43047607 67.31703581 168.44504184 61.23975247 168.45337611 C54.2305273 168.46314789 47.22161798 168.48946832 40.21250409 168.52987701 C34.1368464 168.56369923 28.06132133 168.57552297 21.98557472 168.57958031 C19.40317453 168.58445698 16.82077797 168.5961015 14.23843956 168.6146183 C10.62590635 168.63891468 7.0142009 168.63806169 3.40161133 168.63110352 C1.7999839 168.6503186 1.7999839 168.6503186 0.16600037 168.66992188 C-5.84455367 168.62769452 -9.41694485 168.22045001 -13.97216797 164.16113281 C-15.3581923 161.38908415 -15.10772687 159.1351695 -15.11933899 156.03190613 C-15.13007195 154.06970879 -15.13007195 154.06970879 -15.14102173 152.06787109 C-15.14386213 150.60961938 -15.14657384 149.15136741 -15.14916992 147.69311523 C-15.1554334 146.16400497 -15.16208009 144.63489624 -15.16908264 143.10578918 C-15.18650259 138.94455289 -15.19704701 134.78332809 -15.20528817 130.62206435 C-15.21043602 128.02326682 -15.21651183 125.42447287 -15.2227993 122.82567787 C-15.2418538 114.69757003 -15.25608462 106.56947129 -15.26441127 98.44134539 C-15.27418694 89.05329497 -15.30051388 79.66548012 -15.34091216 70.27751273 C-15.37105295 63.0247983 -15.38587818 55.77215148 -15.38919228 48.51937562 C-15.39154503 44.18588303 -15.40053436 39.85264204 -15.42565346 35.51921654 C-15.44890386 31.442258 -15.45317983 27.36571725 -15.44289207 23.28870964 C-15.44239587 21.79272829 -15.44874141 20.29672659 -15.46244812 18.80080795 C-15.48012027 16.75771836 -15.47069085 14.71444803 -15.45991516 12.67131042 C-15.46230351 11.52811938 -15.46469187 10.38492834 -15.4671526 9.20709515 C-14.85997219 5.4707192 -13.62808294 3.81532163 -10.97216797 1.16113281 C-7.27578867 -0.07099362 -3.84996871 0.00561242 0 0 Z M-7.97216797 8.16113281 C-7.9954955 27.83181459 -8.01314642 47.50249358 -8.02398014 67.1731863 C-8.02914341 76.3059733 -8.03618669 85.43875171 -8.04760742 94.5715332 C-8.05755332 102.52871155 -8.06402117 110.48588369 -8.06625646 118.44306809 C-8.06756373 122.65899268 -8.07065059 126.87489949 -8.07789803 131.09081841 C-8.08465676 135.05435465 -8.08678523 139.01786571 -8.08527565 142.98140717 C-8.08555204 144.44035288 -8.08755804 145.89929938 -8.09137344 147.35824013 C-8.09630833 149.34159876 -8.09456608 151.32497074 -8.09242249 153.30833435 C-8.09334428 154.42093848 -8.09426607 155.53354261 -8.0952158 156.67986202 C-8.2532736 159.10376587 -8.2532736 159.10376587 -6.97216797 160.16113281 C-5.46665623 160.25688591 -3.95665767 160.28301468 -2.44810486 160.28138733 C-1.47068832 160.28276199 -0.49327179 160.28413666 0.51376343 160.28555298 C2.13539902 160.28016006 2.13539902 160.28016006 3.78979492 160.2746582 C4.92135513 160.27480423 6.05291534 160.27495026 7.21876526 160.27510071 C10.97935874 160.274401 14.7399034 160.26660592 18.50048828 160.25878906 C21.09980746 160.25692509 23.699127 160.25550109 26.29844666 160.25450134 C32.4537178 160.25106622 38.60896863 160.24317537 44.7642321 160.23315185 C51.77016549 160.22198975 58.7760997 160.21648002 65.78203976 160.21145642 C80.19731336 160.20099273 94.61257207 160.18339389 109.02783203 160.16113281 C109.35783203 159.17113281 109.68783203 158.18113281 110.02783203 157.16113281 C109.23497803 156.40493652 108.44212402 155.64874023 107.62524414 154.86962891 C104.68734746 152.0584648 101.77270762 149.22416712 98.86450195 146.38232422 C97.60282079 145.15583843 96.3349277 143.93570925 95.06079102 142.72216797 C93.2296814 140.97601042 91.42216902 139.20816905 89.61767578 137.43457031 C88.75685646 136.62794449 88.75685646 136.62794449 87.87864685 135.80502319 C86.30102539 134.22900391 86.30102539 134.22900391 84.02783203 131.16113281 C84.1784668 127.95654297 84.1784668 127.95654297 85.02783203 125.16113281 C85.34929343 122.14714811 85.34929343 122.14714811 83.49658203 120.33691406 C82.84689453 119.72203125 82.19720703 119.10714844 81.52783203 118.47363281 C80.87814453 117.85101563 80.22845703 117.22839844 79.55908203 116.58691406 C78.80111328 115.88115234 78.80111328 115.88115234 78.02783203 115.16113281 C74.28388324 116.56511361 70.80375161 118.27695831 67.28564453 120.16113281 C56.56352834 124.91002857 44.52289063 124.57730139 33.67626953 120.41894531 C22.34494914 115.03740377 15.31425319 105.7470243 11.02783203 94.16113281 C10.21533203 91.16113281 10.21533203 91.16113281 10.02783203 88.16113281 C9.93501953 86.99904297 9.93501953 86.99904297 9.84033203 85.81347656 C9.26832934 73.390293 13.49400785 62.39814883 21.77001953 53.23144531 C30.17518384 45.10529061 41.43571101 41.74441571 52.92626953 41.88378906 C64.26880698 42.89804619 73.97216335 47.65770581 81.77783203 55.84863281 C89.86667516 65.63048962 92.01992728 76.78032777 91.02783203 89.16113281 C89.53499085 96.14577316 87.52102312 102.54464395 83.02783203 108.16113281 C84.40971657 111.37157163 85.95205106 113.21049647 88.65283203 115.41113281 C89.28447266 115.93191406 89.91611328 116.45269531 90.56689453 116.98925781 C91.04900391 117.37597656 91.53111328 117.76269531 92.02783203 118.16113281 C93.01783203 117.50113281 94.00783203 116.84113281 95.02783203 116.16113281 C99.6894497 116.33632433 101.6865848 118.40935935 104.77783203 121.72363281 C106.18242527 123.21426902 107.59594107 124.69669888 109.02783203 126.16113281 C109.35783203 126.16113281 109.68783203 126.16113281 110.02783203 126.16113281 C110.02783203 98.77113281 110.02783203 71.38113281 110.02783203 43.16113281 C99.79783203 42.83113281 89.56783203 42.50113281 79.02783203 42.16113281 C74.24779364 39.77111362 74.24779364 39.77111362 73.02783203 36.16113281 C72.70898438 33.04492188 72.70898438 33.04492188 72.61376953 29.42675781 C72.57509766 28.13125 72.53642578 26.83574219 72.49658203 25.50097656 C72.46512936 24.13769997 72.43388196 22.77441863 72.40283203 21.41113281 C72.36462734 20.03220253 72.32557416 18.65329548 72.28564453 17.27441406 C72.19135199 13.90345563 72.10574983 10.53250303 72.02783203 7.16113281 C61.89244126 7.13799553 51.75705674 7.12021062 41.62164497 7.10932064 C36.9157226 7.10409486 32.20981825 7.09700271 27.50390625 7.08569336 C22.96519671 7.0748537 18.42650454 7.06885367 13.88778305 7.06625557 C12.15337729 7.06440328 10.41897252 7.06078638 8.68457413 7.05540276 C6.26137462 7.04817803 3.83824755 7.04714248 1.41503906 7.04760742 C0.33178848 7.04221451 0.33178848 7.04221451 -0.77334595 7.03671265 C-4.49724234 6.98944035 -4.49724234 6.98944035 -7.97216797 8.16113281 Z M79.02783203 12.16113281 C78.9699542 15.78606615 78.93427783 19.41088138 78.90283203 23.03613281 C78.88607422 24.06867187 78.86931641 25.10121094 78.85205078 26.16503906 C78.84560547 27.15117188 78.83916016 28.13730469 78.83251953 29.15332031 C78.8220459 30.06452637 78.81157227 30.97573242 78.80078125 31.91455078 C78.8091221 34.36403717 78.8091221 34.36403717 81.02783203 36.16113281 C83.45381155 36.43900949 83.45381155 36.43900949 86.25439453 36.35644531 C87.28564453 36.35 88.31689453 36.34355469 89.37939453 36.33691406 C90.45962891 36.32015625 91.53986328 36.30339844 92.65283203 36.28613281 C94.28478516 36.27259766 94.28478516 36.27259766 95.94970703 36.25878906 C98.64263355 36.2351669 101.33512459 36.20222837 104.02783203 36.16113281 C99.47555916 30.69099201 99.47555916 30.69099201 94.27783203 25.84863281 C89.94267017 22.1759038 85.99858544 18.16628631 82.03173828 14.10253906 C80.37314685 12.04516318 80.37314685 12.04516318 79.02783203 12.16113281 Z M24.27783203 61.84863281 C18.3956093 68.94229729 16.26773665 77.06071382 16.65673828 86.18457031 C18.10257398 97.78169458 24.14535423 105.27992782 32.96533203 112.59863281 C41.83681787 117.1249011 50.35851552 118.54299265 60.02783203 116.03613281 C69.9893456 112.70018408 77.1665727 106.44358148 82.09033203 97.15722656 C86.02895527 87.78406067 85.52989025 78.59758786 82.02783203 69.16113281 C77.15390273 59.54579797 70.05682249 53.80283847 60.02783203 50.16113281 C46.07151602 45.97423801 33.86468914 51.91575326 24.27783203 61.84863281 Z M93.96533203 126.16113281 C93.32595703 126.82113281 92.68658203 127.48113281 92.02783203 128.16113281 C93.63581135 132.11882917 96.37735857 134.85019037 99.33251953 137.83691406 C100.11310226 138.63103951 100.11310226 138.63103951 100.90945435 139.44120789 C102.00786609 140.55408622 103.10907552 141.66420933 104.21289062 142.77172852 C105.90246147 144.47325962 107.57248318 146.19255674 109.24267578 147.91308594 C110.31313794 148.99300553 111.38471525 150.07182112 112.45751953 151.14941406 C112.95557098 151.66699783 113.45362244 152.1845816 113.96676636 152.71784973 C116.6484989 155.44676325 116.6484989 155.44676325 120.25097656 156.22436523 C122.49787896 154.87986676 123.09555246 153.5695217 124.02783203 151.16113281 C120.20409363 147.31275448 116.37714232 143.46761188 112.54711914 139.62548828 C111.24348582 138.31681284 109.9407496 137.00724313 108.63891602 135.69677734 C106.77218587 133.81797629 104.90229835 131.94236978 103.03173828 130.06738281 C102.44630753 129.47679077 101.86087677 128.88619873 101.25770569 128.27770996 C99.86659961 126.88640948 98.4498268 125.52084751 97.02783203 124.16113281 C95.66865522 124.04510851 95.66865522 124.04510851 93.96533203 126.16113281 Z " fill="#000000" transform="translate(42.97216796875,16.8388671875)"/>
<path d="M0 0 C4.30064351 0.66437527 6.26734128 3.33307145 9.14453125 6.4375 C9.96920898 7.29601562 9.96920898 7.29601562 10.81054688 8.171875 C12.16262535 9.58273949 13.4989146 11.00870512 14.83203125 12.4375 C19.7805409 10.4489534 22.76763108 6.40576356 26.296875 2.5546875 C28.83203125 0.4375 28.83203125 0.4375 31.6484375 0.1328125 C32.36902344 0.23335938 33.08960938 0.33390625 33.83203125 0.4375 C34.52734375 2.6875 34.52734375 2.6875 34.83203125 5.4375 C33.57421875 7.5 33.57421875 7.5 31.70703125 9.4375 C30.74216797 10.4584375 30.74216797 10.4584375 29.7578125 11.5 C29.12230469 12.139375 28.48679688 12.77875 27.83203125 13.4375 C27.30996094 13.97375 26.78789063 14.51 26.25 15.0625 C25.12594325 16.20275354 23.98149755 17.32286601 22.83203125 18.4375 C24.74011992 23.04610761 28.20372569 25.73410648 31.8359375 29.0234375 C34.1933607 31.87448943 34.62084396 33.78035424 34.83203125 37.4375 C33.83203125 38.4375 33.83203125 38.4375 31.6640625 38.875 C27.36341899 38.21062473 25.39672122 35.54192855 22.51953125 32.4375 C21.96974609 31.86515625 21.41996094 31.2928125 20.85351562 30.703125 C19.50143715 29.29226051 18.1651479 27.86629488 16.83203125 26.4375 C11.8835216 28.4260466 8.89643142 32.46923644 5.3671875 36.3203125 C2.83203125 38.4375 2.83203125 38.4375 0.015625 38.7421875 C-0.70496094 38.64164063 -1.42554687 38.54109375 -2.16796875 38.4375 C-2.82796875 37.1175 -3.48796875 35.7975 -4.16796875 34.4375 C-0.00092692 29.58006071 4.25048121 24.90730492 8.83203125 20.4375 C6.84348465 15.48899035 2.80029481 12.50190017 -1.05078125 8.97265625 C-3.16796875 6.4375 -3.16796875 6.4375 -3.53515625 3.68359375 C-3.05308269 0.73473952 -2.91797644 0.5888529 0 0 Z " fill="#000000" transform="translate(78.16796875,80.5625)"/>
</svg>
